<svg width="25" height="25" viewBox="0 0 25 25" fill="none" xmlns="http://www.w3.org/2000/svg">
<g opacity="0.7">
<path d="M21.3338 18.0294C21.3317 18.716 20.9503 20.0371 20.1005 20.7607C19.9305 20.8924 19.7613 20.8173 19.8364 20.6248C20.0851 20.0136 20.654 18.5996 20.3905 18.2729C20.204 18.0249 19.4309 18.0414 18.7714 18.096C18.4704 18.1338 18.2058 18.1509 18.0008 18.1927C17.8108 18.2072 17.7731 18.0381 17.9635 17.9064C18.2115 17.7301 18.4854 17.5945 18.7751 17.5047C19.8472 17.1832 21.0844 17.3826 21.2616 17.5909C21.295 17.6307 21.3347 17.7432 21.3338 18.0294ZM19.5399 19.245C19.2936 19.4347 19.0352 19.6074 18.7661 19.762C16.786 20.96 14.2237 21.5829 12.0005 21.5759C8.42119 21.5647 5.22425 20.2163 2.80225 17.9694C2.59416 17.7969 2.76724 17.5481 3.01084 17.6839C5.62315 19.241 8.85953 20.1881 12.2125 20.1986C14.323 20.2052 16.5986 19.8119 18.7687 18.9573C18.9207 18.9002 19.0904 18.8223 19.2387 18.768C19.581 18.6132 19.8806 18.9986 19.5399 19.245ZM13.8259 8.80958C13.829 7.8264 13.87 7.24757 13.5502 6.74978C13.2665 6.33993 12.7764 6.09284 12.0908 6.12941C11.3474 6.16864 10.5477 6.66009 10.3418 7.56518C10.3011 7.77284 10.1813 7.97647 9.93337 8.02008L7.6664 7.72019C7.50445 7.6819 7.25803 7.55552 7.34009 7.2271C7.83535 4.63042 10.0278 3.73155 12.0996 3.61621L12.5858 3.61774C13.7221 3.6213 15.1814 3.95549 16.1129 4.8226C17.243 5.89906 17.1174 7.33992 17.1125 8.90583L17.1009 12.6147C17.0974 13.7273 17.541 14.2217 17.9863 14.803C18.1067 15.0102 18.1479 15.254 17.9434 15.4215C17.3549 15.9501 16.7581 16.469 16.153 16.978C15.9896 17.1031 15.6971 17.1154 15.5847 17.0187C14.8695 16.4073 14.6955 16.0686 14.2531 15.4486C13.4775 16.2688 12.8269 16.7211 12.054 16.9652C11.5106 17.1032 10.952 17.17 10.3918 17.164C8.44525 17.1579 6.90768 15.9224 6.91531 13.4885C6.92138 11.5533 7.9407 10.2409 9.44217 9.62319C10.9436 9.00455 13.1237 8.81305 13.8259 8.81147M13.3663 13.7137C13.8532 12.8917 13.8153 12.2172 13.82 10.707C13.2127 10.7051 12.6035 10.7457 12.0769 10.8696C11.1027 11.1528 10.3277 11.7709 10.3236 13.0884C10.3203 14.1178 10.8472 14.8203 11.7394 14.8231C11.8624 14.8235 11.9705 14.8087 12.0637 14.7816C12.6882 14.6079 13.0786 14.2918 13.3663 13.7137Z" fill="black"/>
</g>
</svg>
