<svg width="25" height="25" viewBox="0 0 25 25" fill="none" xmlns="http://www.w3.org/2000/svg">
<g opacity="0.7">
<path d="M18.0228 21.5759C16.902 22.6254 15.6824 22.4553 14.5095 21.9528C13.2682 21.439 12.128 21.4133 10.815 21.9412C9.17088 22.6234 8.3049 22.4211 7.32701 21.5423C1.77995 15.9492 2.62757 7.46072 8.94566 7.17015C10.4848 7.25257 11.5543 7.99861 12.4549 8.06795C13.8013 7.80613 15.0922 7.04531 16.5286 7.14958C18.25 7.28799 19.5478 7.95716 20.3993 9.15701C16.8351 11.2187 17.6647 15.7773 20.9219 17.0623C20.2667 18.723 19.4177 20.372 18.0113 21.5869L18.0228 21.5759ZM12.3439 7.11429C12.1806 4.64182 14.2509 2.60867 16.6233 2.41657C16.945 5.27751 13.9394 7.39641 12.3439 7.11429Z" fill="black"/>
</g>
</svg>
