<svg width="71" height="68" viewBox="0 0 71 68" fill="none" xmlns="http://www.w3.org/2000/svg">
<g opacity="0.7">
<path d="M47.8872 6.39924C46.5208 7.06628 44.8657 6.58158 44.0903 5.2365C43.4123 3.89174 43.9047 2.26293 45.2714 1.49999C45.7592 1.30971 46.2471 1.11943 46.734 1.21686C47.3181 1.4105 47.8048 1.60383 48.2914 1.79716C48.5832 1.98988 48.8746 2.27851 49.0683 2.66273C49.746 4.1034 49.2536 5.73221 47.8872 6.39924Z" fill="url(#paint0_linear_2001_967)"/>
<path d="M49.1287 14.5553C48.4508 13.2105 48.9431 11.5817 50.3098 10.8188C51.6762 10.1517 53.3314 10.6365 54.1068 11.9815C54.7847 13.3263 54.2923 14.9551 52.9256 15.718C51.5589 16.481 49.8066 15.9001 49.1287 14.5553Z" fill="url(#paint1_linear_2001_967)"/>
<path d="M54.1671 23.8729C53.4892 22.5282 53.9816 20.8994 55.3483 20.1364C56.7147 19.4694 58.3698 19.9541 59.1452 21.2992C59.8231 22.6439 59.3308 24.2727 57.9641 25.0357C56.5002 25.7024 54.8451 25.2177 54.1671 23.8729Z" fill="url(#paint2_linear_2001_967)"/>
<path d="M59.2056 33.1915C58.5276 31.8468 59.02 30.2179 60.3867 29.455C61.7531 28.788 63.4083 29.2727 64.1837 30.6177C64.8616 31.9625 64.3692 33.5913 63.0025 34.3543C61.5387 35.021 59.8835 34.5363 59.2056 33.1915Z" fill="url(#paint3_linear_2001_967)"/>
<path d="M64.1468 42.4143C63.4688 41.0695 63.9612 39.4407 65.3279 38.6778C66.6943 38.0107 68.3494 38.4954 69.1248 39.8405C69.3185 40.2247 69.4148 40.6086 69.4139 40.8963C69.3146 41.4714 69.1182 41.9503 69.019 42.5254C68.7254 42.9081 68.4318 43.2908 67.944 43.4811C66.5773 44.244 64.9221 43.7593 64.1468 42.4143Z" fill="url(#paint4_linear_2001_967)"/>
<path d="M55.0039 5.55802C55.0042 5.46211 54.907 5.36591 54.907 5.36591C55.6851 5.84786 56.4629 6.42572 57.2407 7.00357C56.364 6.90492 55.4884 6.42266 55.0039 5.55802Z" fill="url(#paint5_linear_2001_967)"/>
<path d="M63.8395 15.944C62.4731 16.611 60.818 16.1263 60.0426 14.7813C59.3647 13.4365 59.857 11.8077 61.2237 11.0447C61.3215 10.9491 61.4189 10.9494 61.5164 10.9498C62.6816 12.296 63.7493 13.6419 64.719 15.1794C64.5232 15.4665 64.1325 15.7531 63.8395 15.944Z" fill="url(#paint6_linear_2001_967)"/>
<path d="M68.7803 25.262C67.4139 25.929 65.7588 25.4444 64.9834 24.0993C64.3054 22.7546 64.7978 21.1257 66.1645 20.3627C66.5549 20.1721 66.945 20.0776 67.3348 20.0788C68.0119 21.7113 68.5914 23.3434 69.0733 25.0712C68.9755 25.1668 68.8781 25.1664 68.7803 25.262Z" fill="url(#paint7_linear_2001_967)"/>
<path d="M70.1274 30.8279C70.2218 31.7873 70.2188 32.7463 70.2161 33.6094C70.2164 33.5135 70.1193 33.4173 70.1193 33.4173C69.6347 32.5526 69.6377 31.5936 70.1274 30.8279Z" fill="url(#paint8_linear_2001_967)"/>
<path d="M10.2469 14.241C9.27063 14.8134 8.00438 14.6176 7.22689 13.9438C8.30335 12.5087 9.47726 11.0738 10.7483 9.73511C11.0401 9.92783 11.2341 10.2162 11.4281 10.5045C12.106 11.8493 11.6133 13.574 10.2469 14.241Z" fill="url(#paint9_linear_2001_967)"/>
<path d="M16.3685 19.823C17.0464 21.1678 16.554 22.7966 15.1873 23.5595C13.8209 24.2265 12.1658 23.7418 11.3904 22.3968C10.7125 21.052 11.2048 19.4232 12.5715 18.6602C13.9379 17.9932 15.6905 18.4782 16.3685 19.823Z" fill="url(#paint10_linear_2001_967)"/>
<path d="M21.4069 29.1416C22.0848 30.4863 21.5925 32.1151 20.2258 32.8781C18.8594 33.5451 17.2042 33.0604 16.4288 31.7153C15.7509 30.3706 16.2433 28.7418 17.61 27.9788C18.9764 27.3118 20.6315 27.7965 21.4069 29.1416Z" fill="url(#paint11_linear_2001_967)"/>
<path d="M26.4456 38.3637C27.1236 39.7084 26.6312 41.3373 25.2645 42.1002C23.8981 42.7672 22.243 42.2825 21.4676 40.9375C20.7896 39.5927 21.282 37.9639 22.6487 37.2009C24.0151 36.5339 25.6702 37.0186 26.4456 38.3637Z" fill="url(#paint12_linear_2001_967)"/>
<path d="M31.4841 47.6823C32.162 49.027 31.6696 50.6558 30.3029 51.4188C28.9365 52.0858 27.2814 51.6011 26.506 50.256C25.828 48.9113 26.3204 47.2825 27.6871 46.5195C29.0535 45.8525 30.7087 46.3372 31.4841 47.6823Z" fill="url(#paint13_linear_2001_967)"/>
<path d="M36.4245 57.0005C37.1024 58.3453 36.61 59.9741 35.2433 60.737C33.8769 61.4041 32.2218 60.9194 31.4464 59.5743C30.7685 58.2295 31.2608 56.6007 32.6275 55.8378C34.0914 55.1711 35.7465 55.6558 36.4245 57.0005Z" fill="url(#paint14_linear_2001_967)"/>
<path d="M37.7635 65.1557C39.1299 64.4887 40.7851 64.9734 41.5604 66.3185C41.7544 66.6068 41.8507 66.9907 41.8498 67.2784C39.997 67.6562 38.1452 67.7463 36.2933 67.8364C36.1995 66.6853 36.69 65.6319 37.7635 65.1557Z" fill="url(#paint15_linear_2001_967)"/>
<path d="M22.244 10.7307C22.922 12.0755 22.4296 13.7043 21.0629 14.4672C19.6965 15.1342 18.0414 14.6495 17.266 13.3045C16.588 11.9597 17.0804 10.3309 18.4471 9.56795C19.9109 8.90121 21.5658 9.48182 22.244 10.7307Z" fill="url(#paint16_linear_2001_967)"/>
<path d="M22.4024 22.6233C21.7245 21.2785 22.2168 19.6497 23.5835 18.8868C24.9499 18.2197 26.6051 18.7044 27.3805 20.0495C28.0584 21.3943 27.5661 23.0231 26.1994 23.786C24.833 24.4531 23.0803 23.968 22.4024 22.6233Z" fill="url(#paint17_linear_2001_967)"/>
<path d="M27.4399 31.9409C26.7619 30.5962 27.2543 28.9673 28.621 28.2044C29.9874 27.5374 31.6426 28.0221 32.418 29.3671C33.0959 30.7119 32.6035 32.3407 31.2368 33.1037C29.773 33.7704 28.1178 33.2857 27.4399 31.9409Z" fill="url(#paint18_linear_2001_967)"/>
<path d="M32.4786 41.164C31.8007 39.8192 32.293 38.1904 33.6597 37.4275C35.0261 36.7604 36.6813 37.2451 37.4567 38.5902C38.1346 39.935 37.6423 41.5638 36.2756 42.3267C34.8117 42.9934 33.1566 42.5087 32.4786 41.164Z" fill="url(#paint19_linear_2001_967)"/>
<path d="M42.398 47.9085C43.076 49.2532 42.5836 50.882 41.2169 51.645C39.8505 52.312 38.1954 51.8273 37.42 50.4822C36.742 49.1375 37.2344 47.5087 38.6011 46.7457C39.9675 46.0787 41.6227 46.5634 42.398 47.9085Z" fill="url(#paint20_linear_2001_967)"/>
<path d="M47.3385 57.2258C48.0164 58.5706 47.524 60.1994 46.1573 60.9623C44.7909 61.6294 43.1358 61.1447 42.3604 59.7996C41.6825 58.4548 42.1748 56.826 43.5415 56.0631C45.0054 55.3963 46.6605 55.881 47.3385 57.2258Z" fill="url(#paint21_linear_2001_967)"/>
<path d="M4.52058 37.911C5.19852 39.2558 4.70616 40.8846 3.33946 41.6476C2.8513 41.9337 2.26629 42.0278 1.77935 41.9304C1.29751 40.2026 1.01058 38.4754 0.91854 36.7489C2.28494 36.0819 3.84233 36.6622 4.52058 37.911Z" fill="url(#paint22_linear_2001_967)"/>
<path d="M5.85913 46.0671C7.22554 45.4001 8.88069 45.8848 9.65608 47.2298C10.334 48.5746 9.84166 50.2034 8.47495 50.9664C7.49865 51.5387 6.2324 51.3429 5.4549 50.6692C5.2609 50.3809 5.06721 49.9966 4.87321 49.7083C4.67921 49.42 4.58296 49.0361 4.38896 48.7478C4.29482 47.6926 4.78537 46.6392 5.85913 46.0671Z" fill="url(#paint23_linear_2001_967)"/>
<path d="M14.5978 56.4526C15.2761 57.7015 14.7837 59.3303 13.5145 60.0935C12.1535 59.0343 10.8905 57.7836 9.62789 56.437C9.92175 55.9584 10.3128 55.576 10.8009 55.2899C12.1673 54.6228 13.9199 55.1078 14.5978 56.4526Z" fill="url(#paint24_linear_2001_967)"/>
<path d="M4.27461 23.2373C3.68901 23.5232 2.9091 23.6167 2.32471 23.5189C2.91482 21.7945 3.50463 20.166 4.38679 18.5384C4.77569 18.8274 5.16459 19.1163 5.45543 19.5967C6.13337 20.9415 5.64101 22.5703 4.27461 23.2373Z" fill="url(#paint25_linear_2001_967)"/>
<path d="M10.4929 28.9156C11.1708 30.2604 10.6785 31.8892 9.31178 32.6521C7.94537 33.3191 6.29023 32.8344 5.51484 31.4894C4.73945 30.1443 5.32926 28.5158 6.69596 27.7529C8.06267 26.9899 9.71752 27.5705 10.4929 28.9156Z" fill="url(#paint26_linear_2001_967)"/>
<path d="M15.5316 38.1375C16.2096 39.4822 15.7172 41.1111 14.3505 41.874C12.9841 42.541 11.329 42.0563 10.5536 40.7113C9.87563 39.3665 10.368 37.7377 11.7347 36.9747C13.1011 36.3077 14.7562 36.7924 15.5316 38.1375Z" fill="url(#paint27_linear_2001_967)"/>
<path d="M20.473 47.4558C21.1509 48.8005 20.6586 50.4293 19.2919 51.1923C17.9255 51.8593 16.2703 51.3746 15.4949 50.0295C14.817 48.6848 15.3093 47.0559 16.6761 46.293C18.1399 45.6263 19.7951 46.111 20.473 47.4558Z" fill="url(#paint28_linear_2001_967)"/>
<path d="M25.5108 56.6789C26.1887 58.0236 25.6964 59.6524 24.3296 60.4154C22.9632 61.0824 21.3081 60.5977 20.5327 59.2526C19.8548 57.9079 20.3471 56.2791 21.7138 55.5161C23.0802 54.8491 24.8325 55.43 25.5108 56.6789Z" fill="url(#paint29_linear_2001_967)"/>
<path d="M30.5493 65.9964C30.8402 66.4769 30.9361 66.9567 30.8371 67.4359C28.9862 67.2383 27.2333 66.8492 25.481 66.2683C25.6777 65.6935 26.1668 65.1196 26.7524 64.8337C28.1188 64.1667 29.8714 64.6517 30.5493 65.9964Z" fill="url(#paint30_linear_2001_967)"/>
<path d="M27.0363 5.47034C25.6699 6.13738 24.0147 5.65267 23.2394 4.3076C22.7548 3.44295 22.8553 2.48424 23.2478 1.62234C24.4187 1.1465 25.5893 0.766556 26.857 0.482821C27.3434 0.772055 27.8294 1.15719 28.1203 1.63762C28.8954 3.07859 28.403 4.7074 27.0363 5.47034Z" fill="url(#paint31_linear_2001_967)"/>
<path d="M28.2777 13.6264C27.5997 12.2816 28.0921 10.6528 29.4588 9.88992C30.8252 9.22288 32.4804 9.70759 33.2557 11.0526C33.9337 12.3974 33.4413 14.0262 32.0746 14.7891C30.7082 15.4562 29.0534 14.8756 28.2777 13.6264Z" fill="url(#paint32_linear_2001_967)"/>
<path d="M33.3155 22.8485C32.6375 21.5038 33.1299 19.875 34.4966 19.112C35.863 18.445 37.5181 18.9297 38.2935 20.2748C38.9715 21.6195 38.4791 23.2483 37.1124 24.0113C35.746 24.6783 34.0908 24.1936 33.3155 22.8485Z" fill="url(#paint33_linear_2001_967)"/>
<path d="M38.3539 32.1671C37.6759 30.8224 38.1683 29.1935 39.535 28.4306C40.9014 27.7636 42.5566 28.2483 43.332 29.5933C44.0099 30.9381 43.5175 32.5669 42.1508 33.3299C40.7844 33.9969 39.0318 33.5119 38.3539 32.1671Z" fill="url(#paint34_linear_2001_967)"/>
<path d="M43.3926 41.3902C42.7147 40.0454 43.207 38.4166 44.5737 37.6537C45.9401 36.9866 47.5953 37.4713 48.3707 38.8164C49.0486 40.1612 48.5563 41.79 47.1896 42.5529C45.7254 43.3156 44.0706 42.7349 43.3926 41.3902Z" fill="url(#paint35_linear_2001_967)"/>
<path d="M48.333 50.7075C47.6551 49.3627 48.1474 47.7339 49.5141 46.971C50.8806 46.304 52.5357 46.7887 53.3111 48.1337C53.989 49.4785 53.4967 51.1073 52.13 51.8703C50.7636 52.5373 49.1084 52.0526 48.333 50.7075Z" fill="url(#paint36_linear_2001_967)"/>
<path d="M53.3716 60.0261C52.6936 58.6813 53.186 57.0525 54.5527 56.2896C55.9191 55.6225 57.5742 56.1072 58.3496 57.4523C58.6402 58.0286 58.7358 58.6044 58.6366 59.1795C57.7571 59.9439 56.6824 60.8037 55.7058 61.472C54.7316 61.373 53.8561 60.8907 53.3716 60.0261Z" fill="url(#paint37_linear_2001_967)"/>
<path d="M34.2503 4.53437C33.5724 3.1896 34.0647 1.56079 35.4314 0.797852C36.7978 0.130814 38.453 0.615518 39.2284 1.96059C39.9063 3.30536 39.414 4.93417 38.0472 5.69711C36.5834 6.36385 34.9282 5.87913 34.2503 4.53437Z" fill="url(#paint38_linear_2001_967)"/>
<path d="M39.1907 13.8526C38.5128 12.5079 39.0051 10.879 40.3718 10.1161C41.7382 9.4491 43.3934 9.9338 44.1688 11.2788C44.8467 12.6236 44.3544 14.2524 42.9877 15.0154C41.6213 15.6824 39.9661 15.1977 39.1907 13.8526Z" fill="url(#paint39_linear_2001_967)"/>
<path d="M44.2294 23.0748C43.5515 21.73 44.0439 20.1012 45.4106 19.3382C46.777 18.6712 48.4321 19.1559 49.2075 20.501C49.8855 21.8457 49.3931 23.4746 48.0264 24.2375C46.66 24.9045 45.0048 24.4198 44.2294 23.0748Z" fill="url(#paint40_linear_2001_967)"/>
<path d="M49.2679 32.3933C48.5899 31.0486 49.0823 29.4198 50.449 28.6568C51.8154 27.9898 53.4706 28.4745 54.2459 29.8196C54.9239 31.1643 54.4315 32.7931 53.0648 33.5561C51.6984 34.2231 49.9458 33.7381 49.2679 32.3933Z" fill="url(#paint41_linear_2001_967)"/>
<path d="M54.3063 41.7119C53.6284 40.3671 54.1207 38.7383 55.4874 37.9754C56.8538 37.3084 58.509 37.7931 59.2844 39.1381C59.9623 40.4829 59.47 42.1117 58.1032 42.8746C56.7368 43.5417 54.9845 42.9608 54.3063 41.7119Z" fill="url(#paint42_linear_2001_967)"/>
<path d="M59.345 50.934C58.6671 49.5893 59.1595 47.9605 60.5262 47.1975C61.8926 46.5305 63.5477 47.0152 64.3231 48.3602C65.0011 49.705 64.5087 51.3338 63.142 52.0968C61.6782 52.7635 60.023 52.2788 59.345 50.934Z" fill="url(#paint43_linear_2001_967)"/>
</g>
<defs>
<linearGradient id="paint0_linear_2001_967" x1="57.5606" y1="17.4002" x2="13.5697" y2="24.1853" gradientUnits="userSpaceOnUse">
<stop stop-color="#0179B4"/>
<stop offset="0.954688" stop-color="#88D8FF"/>
</linearGradient>
<linearGradient id="paint1_linear_2001_967" x1="57.5606" y1="17.4002" x2="13.5697" y2="24.1853" gradientUnits="userSpaceOnUse">
<stop stop-color="#0179B4"/>
<stop offset="0.954688" stop-color="#88D8FF"/>
</linearGradient>
<linearGradient id="paint2_linear_2001_967" x1="57.5606" y1="17.4002" x2="13.5697" y2="24.1853" gradientUnits="userSpaceOnUse">
<stop stop-color="#0179B4"/>
<stop offset="0.954688" stop-color="#88D8FF"/>
</linearGradient>
<linearGradient id="paint3_linear_2001_967" x1="57.5606" y1="17.4002" x2="13.5697" y2="24.1853" gradientUnits="userSpaceOnUse">
<stop stop-color="#0179B4"/>
<stop offset="0.954688" stop-color="#88D8FF"/>
</linearGradient>
<linearGradient id="paint4_linear_2001_967" x1="57.5606" y1="17.4002" x2="13.5697" y2="24.1853" gradientUnits="userSpaceOnUse">
<stop stop-color="#0179B4"/>
<stop offset="0.954688" stop-color="#88D8FF"/>
</linearGradient>
<linearGradient id="paint5_linear_2001_967" x1="57.5606" y1="17.4002" x2="13.5697" y2="24.1853" gradientUnits="userSpaceOnUse">
<stop stop-color="#0179B4"/>
<stop offset="0.954688" stop-color="#88D8FF"/>
</linearGradient>
<linearGradient id="paint6_linear_2001_967" x1="57.5606" y1="17.4002" x2="13.5697" y2="24.1853" gradientUnits="userSpaceOnUse">
<stop stop-color="#0179B4"/>
<stop offset="0.954688" stop-color="#88D8FF"/>
</linearGradient>
<linearGradient id="paint7_linear_2001_967" x1="57.5606" y1="17.4002" x2="13.5697" y2="24.1853" gradientUnits="userSpaceOnUse">
<stop stop-color="#0179B4"/>
<stop offset="0.954688" stop-color="#88D8FF"/>
</linearGradient>
<linearGradient id="paint8_linear_2001_967" x1="57.5606" y1="17.4002" x2="13.5697" y2="24.1853" gradientUnits="userSpaceOnUse">
<stop stop-color="#0179B4"/>
<stop offset="0.954688" stop-color="#88D8FF"/>
</linearGradient>
<linearGradient id="paint9_linear_2001_967" x1="57.5606" y1="17.4002" x2="13.5697" y2="24.1853" gradientUnits="userSpaceOnUse">
<stop stop-color="#0179B4"/>
<stop offset="0.954688" stop-color="#88D8FF"/>
</linearGradient>
<linearGradient id="paint10_linear_2001_967" x1="57.5606" y1="17.4002" x2="13.5697" y2="24.1853" gradientUnits="userSpaceOnUse">
<stop stop-color="#0179B4"/>
<stop offset="0.954688" stop-color="#88D8FF"/>
</linearGradient>
<linearGradient id="paint11_linear_2001_967" x1="57.5606" y1="17.4002" x2="13.5697" y2="24.1853" gradientUnits="userSpaceOnUse">
<stop stop-color="#0179B4"/>
<stop offset="0.954688" stop-color="#88D8FF"/>
</linearGradient>
<linearGradient id="paint12_linear_2001_967" x1="57.5606" y1="17.4002" x2="13.5697" y2="24.1853" gradientUnits="userSpaceOnUse">
<stop stop-color="#0179B4"/>
<stop offset="0.954688" stop-color="#88D8FF"/>
</linearGradient>
<linearGradient id="paint13_linear_2001_967" x1="57.5606" y1="17.4002" x2="13.5697" y2="24.1853" gradientUnits="userSpaceOnUse">
<stop stop-color="#0179B4"/>
<stop offset="0.954688" stop-color="#88D8FF"/>
</linearGradient>
<linearGradient id="paint14_linear_2001_967" x1="57.5606" y1="17.4002" x2="13.5697" y2="24.1853" gradientUnits="userSpaceOnUse">
<stop stop-color="#0179B4"/>
<stop offset="0.954688" stop-color="#88D8FF"/>
</linearGradient>
<linearGradient id="paint15_linear_2001_967" x1="57.5606" y1="17.4002" x2="13.5697" y2="24.1853" gradientUnits="userSpaceOnUse">
<stop stop-color="#0179B4"/>
<stop offset="0.954688" stop-color="#88D8FF"/>
</linearGradient>
<linearGradient id="paint16_linear_2001_967" x1="57.5606" y1="17.4002" x2="13.5697" y2="24.1853" gradientUnits="userSpaceOnUse">
<stop stop-color="#0179B4"/>
<stop offset="0.954688" stop-color="#88D8FF"/>
</linearGradient>
<linearGradient id="paint17_linear_2001_967" x1="57.5606" y1="17.4002" x2="13.5697" y2="24.1853" gradientUnits="userSpaceOnUse">
<stop stop-color="#0179B4"/>
<stop offset="0.954688" stop-color="#88D8FF"/>
</linearGradient>
<linearGradient id="paint18_linear_2001_967" x1="57.5606" y1="17.4002" x2="13.5697" y2="24.1853" gradientUnits="userSpaceOnUse">
<stop stop-color="#0179B4"/>
<stop offset="0.954688" stop-color="#88D8FF"/>
</linearGradient>
<linearGradient id="paint19_linear_2001_967" x1="57.5606" y1="17.4002" x2="13.5697" y2="24.1853" gradientUnits="userSpaceOnUse">
<stop stop-color="#0179B4"/>
<stop offset="0.954688" stop-color="#88D8FF"/>
</linearGradient>
<linearGradient id="paint20_linear_2001_967" x1="57.5606" y1="17.4002" x2="13.5697" y2="24.1853" gradientUnits="userSpaceOnUse">
<stop stop-color="#0179B4"/>
<stop offset="0.954688" stop-color="#88D8FF"/>
</linearGradient>
<linearGradient id="paint21_linear_2001_967" x1="57.5606" y1="17.4002" x2="13.5697" y2="24.1853" gradientUnits="userSpaceOnUse">
<stop stop-color="#0179B4"/>
<stop offset="0.954688" stop-color="#88D8FF"/>
</linearGradient>
<linearGradient id="paint22_linear_2001_967" x1="57.5606" y1="17.4002" x2="13.5697" y2="24.1853" gradientUnits="userSpaceOnUse">
<stop stop-color="#0179B4"/>
<stop offset="0.954688" stop-color="#88D8FF"/>
</linearGradient>
<linearGradient id="paint23_linear_2001_967" x1="57.5606" y1="17.4002" x2="13.5697" y2="24.1853" gradientUnits="userSpaceOnUse">
<stop stop-color="#0179B4"/>
<stop offset="0.954688" stop-color="#88D8FF"/>
</linearGradient>
<linearGradient id="paint24_linear_2001_967" x1="57.5606" y1="17.4002" x2="13.5697" y2="24.1853" gradientUnits="userSpaceOnUse">
<stop stop-color="#0179B4"/>
<stop offset="0.954688" stop-color="#88D8FF"/>
</linearGradient>
<linearGradient id="paint25_linear_2001_967" x1="57.5606" y1="17.4002" x2="13.5697" y2="24.1853" gradientUnits="userSpaceOnUse">
<stop stop-color="#0179B4"/>
<stop offset="0.954688" stop-color="#88D8FF"/>
</linearGradient>
<linearGradient id="paint26_linear_2001_967" x1="57.5606" y1="17.4002" x2="13.5697" y2="24.1853" gradientUnits="userSpaceOnUse">
<stop stop-color="#0179B4"/>
<stop offset="0.954688" stop-color="#88D8FF"/>
</linearGradient>
<linearGradient id="paint27_linear_2001_967" x1="57.5606" y1="17.4002" x2="13.5697" y2="24.1853" gradientUnits="userSpaceOnUse">
<stop stop-color="#0179B4"/>
<stop offset="0.954688" stop-color="#88D8FF"/>
</linearGradient>
<linearGradient id="paint28_linear_2001_967" x1="57.5606" y1="17.4002" x2="13.5697" y2="24.1853" gradientUnits="userSpaceOnUse">
<stop stop-color="#0179B4"/>
<stop offset="0.954688" stop-color="#88D8FF"/>
</linearGradient>
<linearGradient id="paint29_linear_2001_967" x1="57.5606" y1="17.4002" x2="13.5697" y2="24.1853" gradientUnits="userSpaceOnUse">
<stop stop-color="#0179B4"/>
<stop offset="0.954688" stop-color="#88D8FF"/>
</linearGradient>
<linearGradient id="paint30_linear_2001_967" x1="57.5606" y1="17.4002" x2="13.5697" y2="24.1853" gradientUnits="userSpaceOnUse">
<stop stop-color="#0179B4"/>
<stop offset="0.954688" stop-color="#88D8FF"/>
</linearGradient>
<linearGradient id="paint31_linear_2001_967" x1="57.5606" y1="17.4002" x2="13.5697" y2="24.1853" gradientUnits="userSpaceOnUse">
<stop stop-color="#0179B4"/>
<stop offset="0.954688" stop-color="#88D8FF"/>
</linearGradient>
<linearGradient id="paint32_linear_2001_967" x1="57.5606" y1="17.4002" x2="13.5697" y2="24.1853" gradientUnits="userSpaceOnUse">
<stop stop-color="#0179B4"/>
<stop offset="0.954688" stop-color="#88D8FF"/>
</linearGradient>
<linearGradient id="paint33_linear_2001_967" x1="57.5606" y1="17.4002" x2="13.5697" y2="24.1853" gradientUnits="userSpaceOnUse">
<stop stop-color="#0179B4"/>
<stop offset="0.954688" stop-color="#88D8FF"/>
</linearGradient>
<linearGradient id="paint34_linear_2001_967" x1="57.5606" y1="17.4002" x2="13.5697" y2="24.1853" gradientUnits="userSpaceOnUse">
<stop stop-color="#0179B4"/>
<stop offset="0.954688" stop-color="#88D8FF"/>
</linearGradient>
<linearGradient id="paint35_linear_2001_967" x1="57.5606" y1="17.4002" x2="13.5697" y2="24.1853" gradientUnits="userSpaceOnUse">
<stop stop-color="#0179B4"/>
<stop offset="0.954688" stop-color="#88D8FF"/>
</linearGradient>
<linearGradient id="paint36_linear_2001_967" x1="57.5606" y1="17.4002" x2="13.5697" y2="24.1853" gradientUnits="userSpaceOnUse">
<stop stop-color="#0179B4"/>
<stop offset="0.954688" stop-color="#88D8FF"/>
</linearGradient>
<linearGradient id="paint37_linear_2001_967" x1="57.5606" y1="17.4002" x2="13.5697" y2="24.1853" gradientUnits="userSpaceOnUse">
<stop stop-color="#0179B4"/>
<stop offset="0.954688" stop-color="#88D8FF"/>
</linearGradient>
<linearGradient id="paint38_linear_2001_967" x1="57.5606" y1="17.4002" x2="13.5697" y2="24.1853" gradientUnits="userSpaceOnUse">
<stop stop-color="#0179B4"/>
<stop offset="0.954688" stop-color="#88D8FF"/>
</linearGradient>
<linearGradient id="paint39_linear_2001_967" x1="57.5606" y1="17.4002" x2="13.5697" y2="24.1853" gradientUnits="userSpaceOnUse">
<stop stop-color="#0179B4"/>
<stop offset="0.954688" stop-color="#88D8FF"/>
</linearGradient>
<linearGradient id="paint40_linear_2001_967" x1="57.5606" y1="17.4002" x2="13.5697" y2="24.1853" gradientUnits="userSpaceOnUse">
<stop stop-color="#0179B4"/>
<stop offset="0.954688" stop-color="#88D8FF"/>
</linearGradient>
<linearGradient id="paint41_linear_2001_967" x1="57.5606" y1="17.4002" x2="13.5697" y2="24.1853" gradientUnits="userSpaceOnUse">
<stop stop-color="#0179B4"/>
<stop offset="0.954688" stop-color="#88D8FF"/>
</linearGradient>
<linearGradient id="paint42_linear_2001_967" x1="57.5606" y1="17.4002" x2="13.5697" y2="24.1853" gradientUnits="userSpaceOnUse">
<stop stop-color="#0179B4"/>
<stop offset="0.954688" stop-color="#88D8FF"/>
</linearGradient>
<linearGradient id="paint43_linear_2001_967" x1="57.5606" y1="17.4002" x2="13.5697" y2="24.1853" gradientUnits="userSpaceOnUse">
<stop stop-color="#0179B4"/>
<stop offset="0.954688" stop-color="#88D8FF"/>
</linearGradient>
</defs>
</svg>
