<svg width="25" height="25" viewBox="0 0 25 25" fill="none" xmlns="http://www.w3.org/2000/svg">
<g opacity="0.8">
<path opacity="0.7" d="M12.7796 6.48695C14.1981 6.4676 15.5669 7.00823 16.5894 7.99157L19.46 5.13894C17.6593 3.43686 15.2697 2.49788 12.792 2.51883C10.9421 2.51227 9.12674 3.02035 7.54897 3.9863C5.9712 4.95224 4.69317 6.33797 3.85776 7.98858L7.1832 10.5832C7.57029 9.40085 8.31847 8.36963 9.32242 7.63479C10.3264 6.89995 11.5355 6.4985 12.7796 6.48695Z" fill="black"/>
<path d="M3.85764 7.98868C3.15575 9.37687 2.78771 10.9098 2.78283 12.4653C2.77795 14.0209 3.13638 15.5561 3.82955 16.9486L7.17119 14.3749C6.75788 13.1441 6.76206 11.8115 7.18308 10.5833L3.85764 7.98868Z" fill="black"/>
<path opacity="0.5" d="M16.1234 17.5647C15.3505 18.0575 14.4752 18.3672 13.5643 18.4702C12.6535 18.5733 11.7311 18.4669 10.8676 18.1593C10.0041 17.8517 9.2222 17.351 8.58164 16.6952C7.94108 16.0395 7.45874 15.2462 7.17141 14.3757L3.83077 16.9495C4.65566 18.605 5.92466 19.9985 7.49596 20.9743C9.06726 21.9501 10.879 22.4697 12.7286 22.4751C15.1572 22.5485 17.5221 21.691 19.3394 20.0782L16.1234 17.5647Z" fill="black"/>
<path opacity="0.25" d="M22.1636 10.7131L12.7666 10.6836L12.7545 14.543L18.1245 14.5598C18.0114 15.1699 17.7758 15.7508 17.4319 16.2673C17.0879 16.7838 16.6429 17.2252 16.1235 17.5648L19.3404 20.0793C20.3254 19.1366 21.1013 17.9975 21.6178 16.7358C22.1343 15.474 22.38 14.1178 22.3388 12.7551C22.3409 12.0696 22.2832 11.3869 22.1636 10.7131Z" fill="black"/>
</g>
</svg>
