<svg width="762" height="342" viewBox="0 0 762 342" fill="none" xmlns="http://www.w3.org/2000/svg">
<path d="M792.095 1.75918C757.733 1.65146 723.326 -3.19061 692.813 15.6846C673.82 27.4341 661.488 45.807 650.786 64.9626C637.288 89.1257 628.043 117.157 606.935 135.171C585.828 153.185 559.757 164.024 533.968 169.78C502.717 176.757 473.186 155.911 452.175 134.853C426.353 108.974 408.246 73.8972 407.93 36.7328C407.825 24.3854 417.286 10.7593 430.46 9.25127C453.219 6.64602 456.325 74.6969 456.844 87.9707C457.526 105.403 458.481 124.218 452.993 141.053C441.559 176.13 387.264 188.545 379.012 190.44C370.76 192.336 314.551 206.549 260.099 215.359C205.647 224.168 142.789 218.784 88.4397 236.259C60.8877 245.118 32.0617 261.691 14.1729 284.85C0.457053 302.607 0.423615 318.723 -1.49282 339.989" stroke="url(#paint0_linear_2001_973)" stroke-width="2.17696" stroke-linecap="round" stroke-dasharray="6.53 6.53"/>
<defs>
<linearGradient id="paint0_linear_2001_973" x1="-1.08323" y1="285.019" x2="765.555" y2="1.15118" gradientUnits="userSpaceOnUse">
<stop stop-color="#00A3F4" stop-opacity="0.42"/>
<stop offset="0.563099" stop-color="#00A4F4" stop-opacity="0.11"/>
<stop offset="0.887261" stop-color="#00A4F4" stop-opacity="0.6"/>
</linearGradient>
</defs>
</svg>
