<svg width="92" height="27" viewBox="0 0 92 27" fill="none" xmlns="http://www.w3.org/2000/svg">
<path d="M0.136728 16.1963C0.140702 14.9285 0.39453 13.6738 0.883751 12.5041C1.37298 11.3343 2.08797 10.2722 2.98795 9.37854C3.88793 8.48487 4.95521 7.77707 6.12892 7.29556C7.30269 6.81411 8.55981 6.5683 9.82862 6.57228L9.79835 16.2266L0.136728 16.1963Z" fill="#00A4F4"/>
<path d="M0.136719 16.1963C0.13251 17.5387 0.378236 18.8687 0.859897 20.1105C1.34156 21.3522 2.04969 22.4813 2.94388 23.4333C3.83808 24.3854 4.90077 25.1417 6.07135 25.6591C7.24198 26.1765 8.49749 26.4448 9.7663 26.4488L9.79834 16.2266L0.136719 16.1963Z" fill="#2CBEFF"/>
<path d="M19.46 16.2569C19.4558 17.5993 19.2019 18.9277 18.7125 20.1665C18.223 21.4051 17.5079 22.5298 16.6076 23.4762C15.7074 24.4226 14.6399 25.1722 13.4661 25.6822C12.2923 26.1923 11.0351 26.4527 9.76629 26.4487L9.79834 16.2266L19.46 16.2569Z" fill="#75D4FF"/>
<path d="M25.7381 7.75811C25.7253 11.8354 22.407 15.1304 18.3266 15.1176L10.9383 15.0945L10.9615 7.71179C10.9743 3.63446 14.2925 0.339471 18.3729 0.352262C22.4532 0.365054 25.7509 3.68078 25.7381 7.75811Z" fill="#0084D4"/>
<path d="M35.1266 19.8469L32.8408 19.8397L32.8728 9.62985L35.1586 9.63702L35.1459 13.6905L40.4794 13.7072L40.4921 9.65374L42.7779 9.6609L42.7459 19.8708L40.4601 19.8636L40.473 15.7644L35.1394 15.7477L35.1266 19.8469ZM48.0251 20.0397C45.4803 20.0317 43.747 18.7767 43.7555 16.0643C43.7632 13.6261 45.4899 12.0924 48.0043 12.1003C50.5034 12.1081 52.1604 13.4238 52.1529 15.8163C52.152 16.0906 52.1209 16.2886 52.0896 16.5475L45.8722 16.5281C45.9295 17.7016 46.4765 18.2062 47.9547 18.2108C49.3109 18.2151 49.7844 17.8661 49.7865 17.2108L49.7869 17.0584L52.0727 17.0656L52.0722 17.2332C52.067 18.8942 50.4481 20.0473 48.0251 20.0397ZM47.953 13.883C46.5968 13.8788 46.0163 14.3341 45.9065 15.3243L49.96 15.337C49.9022 14.3311 49.294 13.8872 47.953 13.883ZM55.4556 20.063C53.8099 20.0579 52.8217 19.2928 52.8258 18.0128C52.8293 16.8851 53.6696 16.1868 55.3007 16.0243L58.578 15.6993L58.5789 15.4097C58.582 14.4192 58.141 14.1435 56.9219 14.1397C55.7638 14.1361 55.2904 14.4394 55.2877 15.308L55.2875 15.3689L52.9865 15.3617L52.9866 15.316C52.9925 13.4264 54.5814 12.1209 57.0958 12.1288C59.6407 12.1367 60.8404 13.451 60.8342 15.4473L60.8201 19.9274L58.6867 19.9208L58.6922 18.1683L58.5703 18.1679C58.2161 19.3554 57.1471 20.0683 55.4556 20.063ZM55.1273 17.8676C55.126 18.279 55.4455 18.4477 56.116 18.4498C57.6703 18.4546 58.5096 18.0915 58.5739 17.0098L55.9214 17.3063C55.3727 17.3503 55.1284 17.5019 55.1273 17.8676ZM64.2645 19.9382L61.9787 19.9311L62.0107 9.72119L64.2965 9.72836L64.2645 19.9382ZM67.7468 19.9492L65.461 19.942L65.493 9.73211L67.9312 9.73975L71.5733 14.5819L72.9685 16.7349L73.1361 16.7354L73.0359 14.6779L73.0514 9.75581L75.3371 9.76297L75.3051 19.9729L72.867 19.9652L69.1183 15.077L67.829 13.1529L67.6767 13.1524L67.7622 15.0271L67.7468 19.9492ZM80.5709 20.1417C78.0261 20.1338 76.2928 18.8788 76.3013 16.1663C76.3089 13.7281 78.0357 12.1944 80.5501 12.2023C83.0492 12.2101 84.7061 13.5258 84.6986 15.9183C84.6978 16.1926 84.6667 16.3906 84.6354 16.6496L78.418 16.6301C78.4753 17.8036 79.0223 18.3082 80.5005 18.3129C81.8567 18.3171 82.3302 17.9681 82.3322 17.3129L82.3327 17.1605L84.6185 17.1676L84.618 17.3353C84.6128 18.9963 82.9939 20.1493 80.5709 20.1417ZM80.4988 13.9851C79.1425 13.9808 78.562 14.4361 78.4523 15.4263L82.5057 15.439C82.4479 14.4331 81.8398 13.9893 80.4988 13.9851ZM91.0344 20.0222L89.1448 20.0162C87.3619 20.0106 86.2826 19.1691 86.2886 17.2491L86.2979 14.2623L85.0941 14.2585L85.1 12.3689L86.3039 12.3727L86.3085 10.8946L88.5943 10.9017L88.5897 12.3799L91.0583 12.3876L91.0524 14.2772L88.5837 14.2695L88.5752 16.9972C88.5728 17.7591 88.8617 17.9581 89.6694 17.9606L91.0408 17.9649L91.0344 20.0222Z" fill="#0069AB"/>
</svg>
