<svg width="65" height="33" viewBox="0 0 65 33" fill="none" xmlns="http://www.w3.org/2000/svg">
<g opacity="0.3">
<path d="M20.8803 0.742418C20.1654 0.740177 19.5587 1.33563 19.5565 2.04158C19.5542 2.74753 20.1573 3.34676 20.8721 3.349C21.587 3.35124 22.1938 2.7558 22.196 2.04986C22.1982 1.34391 21.5952 0.744659 20.8803 0.742418Z" fill="#00A4F4"/>
<path d="M14.7768 0.723375C14.0619 0.721135 13.4552 1.31659 13.4529 2.02254C13.4507 2.72848 14.0537 3.32772 14.7686 3.32996C15.4835 3.3322 16.0902 2.73676 16.0925 2.03081C16.1497 1.32504 15.5466 0.725789 14.7768 0.723375Z" fill="#00A4F4"/>
<path d="M8.72771 0.704333C8.01285 0.702092 7.40609 1.29755 7.40387 2.00349C7.40166 2.70944 8.00467 3.30867 8.71954 3.31091C9.43441 3.31315 10.0412 2.71772 10.0434 2.01177C10.0456 1.30582 9.44258 0.706574 8.72771 0.704333Z" fill="#00A4F4"/>
<path d="M20.8608 6.98754C20.1459 6.98529 19.5391 7.58074 19.5369 8.28669C19.5347 8.99263 20.1377 9.59187 20.8526 9.59411C21.5675 9.59635 22.1742 9.00091 22.1764 8.29496C22.1786 7.58901 21.5756 6.98978 20.8608 6.98754Z" fill="#00A4F4"/>
<path d="M14.7573 6.968C14.0424 6.96576 13.4356 7.56121 13.4334 8.26715C13.4312 8.9731 14.0342 9.57234 14.7491 9.57458C15.4639 9.57682 16.0707 8.98138 16.0729 8.27543C16.0751 7.56948 15.5271 6.97042 14.7573 6.968Z" fill="#00A4F4"/>
<path d="M8.70818 6.94945C7.99331 6.94721 7.38656 7.54265 7.38434 8.2486C7.38213 8.95455 7.98514 9.55378 8.70001 9.55602C9.41488 9.55826 10.0216 8.96282 10.0238 8.25687C10.0261 7.55093 9.42305 6.95169 8.70818 6.94945Z" fill="#00A4F4"/>
<path d="M22.1569 14.5396C22.1592 13.8198 21.5701 13.2344 20.8412 13.2322C20.1123 13.2299 19.5197 13.8115 19.5174 14.5313C19.5151 15.2511 20.1042 15.8365 20.8331 15.8387C21.562 15.841 22.1546 15.2594 22.1569 14.5396Z" fill="#00A4F4"/>
<path d="M16.0534 14.5205C16.0556 13.8008 15.4666 13.2154 14.7377 13.2131C14.0088 13.2108 13.4161 13.7925 13.4139 14.5123C13.4116 15.2321 14.0007 15.8174 14.7296 15.8197C15.4584 15.822 16.0511 15.2403 16.0534 14.5205Z" fill="#00A4F4"/>
<path d="M10.0043 14.5015C10.0066 13.7817 9.41754 13.1964 8.68865 13.1941C7.95976 13.1918 7.36707 13.7734 7.36481 14.4932C7.36255 15.213 7.95159 15.7984 8.68048 15.8007C9.40937 15.8029 10.0021 15.2213 10.0043 14.5015Z" fill="#00A4F4"/>
<path d="M20.8217 19.4231C20.1068 19.4208 19.5001 20.0163 19.4979 20.7222C19.4957 21.4282 20.0987 22.0274 20.8135 22.0297C21.5284 22.0319 22.1352 21.4365 22.1374 20.7305C22.1396 20.0246 21.5366 19.4253 20.8217 19.4231Z" fill="#00A4F4"/>
<path d="M14.7182 19.404C14.0033 19.4018 13.3966 19.9972 13.3944 20.7032C13.3921 21.4091 13.9952 22.0084 14.71 22.0106C15.4249 22.0129 16.0316 21.4174 16.0339 20.7115C16.0361 20.0055 15.488 19.4065 14.7182 19.404Z" fill="#00A4F4"/>
<path d="M8.66912 19.385C7.95425 19.3828 7.34749 19.9782 7.34528 20.6841C7.34307 21.3901 7.94608 21.9893 8.66095 21.9916C9.37581 21.9938 9.98257 21.3984 9.98479 20.6924C9.987 19.9865 9.38398 19.3872 8.66912 19.385Z" fill="#00A4F4"/>
<path d="M20.8022 25.6682C20.0873 25.666 19.4805 26.2614 19.4783 26.9673C19.4761 27.6733 20.0791 28.2725 20.794 28.2748C21.5089 28.277 22.1156 27.6816 22.1178 26.9756C22.1201 26.2697 21.517 25.6704 20.8022 25.6682Z" fill="#00A4F4"/>
<path d="M14.6987 25.6492C13.9838 25.6469 13.377 26.2424 13.3748 26.9483C13.3726 27.6543 13.9756 28.2535 14.6905 28.2557C15.4054 28.258 16.0121 27.6625 16.0143 26.9566C16.0715 26.2508 15.4685 25.6516 14.6987 25.6492Z" fill="#00A4F4"/>
<path d="M8.64959 25.6301C7.93472 25.6279 7.32796 26.2233 7.32575 26.9293C7.32354 27.6352 7.92655 28.2344 8.64142 28.2367C9.35628 28.2389 9.96304 27.6435 9.96526 26.9375C9.96747 26.2316 9.36445 25.6324 8.64959 25.6301Z" fill="#00A4F4"/>
<path d="M63.4341 3.53699C64.149 3.53923 64.7558 2.94378 64.758 2.23783C64.7602 1.53188 64.1572 0.932648 63.4423 0.930407C62.7274 0.928166 62.1207 1.52361 62.1185 2.22956C62.1163 2.9355 62.6643 3.53458 63.4341 3.53699Z" fill="#00A4F4"/>
<path d="M57.3393 0.856676C56.6244 0.854435 56.0177 1.44989 56.0154 2.15584C56.0132 2.86179 56.6162 3.46102 57.3311 3.46326C58.046 3.4655 58.6527 2.87006 58.655 2.16411C58.6572 1.45817 58.1091 0.85909 57.3393 0.856676Z" fill="#00A4F4"/>
<path d="M51.29 0.838122C50.5751 0.835881 49.9683 1.43134 49.9661 2.13728C49.9639 2.84323 50.5669 3.44246 51.2818 3.4447C51.9967 3.44694 52.6034 2.85151 52.6056 2.14556C52.6078 1.43961 52.0048 0.840363 51.29 0.838122Z" fill="#00A4F4"/>
<path d="M45.1857 0.81859C44.4709 0.816349 43.8641 1.41181 43.8619 2.11775C43.8597 2.8237 44.4627 3.42293 45.1775 3.42517C45.8924 3.42741 46.4992 2.83197 46.5014 2.12603C46.5036 1.42008 45.9556 0.821004 45.1857 0.81859Z" fill="#00A4F4"/>
<path d="M39.1371 0.800036C38.4223 0.797795 37.8155 1.39325 37.8133 2.0992C37.8111 2.80514 38.4141 3.40438 39.129 3.40662C39.8438 3.40886 40.4506 2.81342 40.4528 2.10747C40.455 1.40153 39.852 0.802277 39.1371 0.800036Z" fill="#00A4F4"/>
<path d="M33.0334 0.780504C32.3185 0.778263 31.7118 1.37372 31.7095 2.07967C31.7073 2.78561 32.3103 3.38484 33.0252 3.38709C33.7401 3.38933 34.3468 2.79389 34.349 2.08794C34.3513 1.38199 33.7482 0.782745 33.0334 0.780504Z" fill="#00A4F4"/>
<path d="M26.9291 0.761461C26.2143 0.75922 25.6075 1.35468 25.6053 2.06062C25.6031 2.76657 26.2061 3.3658 26.921 3.36804C27.6358 3.37028 28.2426 2.77485 28.2448 2.0689C28.302 1.36312 27.699 0.763875 26.9291 0.761461Z" fill="#00A4F4"/>
<path d="M63.4228 7.12084C62.7079 7.1186 62.1012 7.71404 62.0989 8.41999C62.0967 9.12593 62.6997 9.72517 63.4146 9.72741C64.1295 9.72965 64.7362 9.13421 64.7385 8.42826C64.7407 7.72231 64.1376 7.12308 63.4228 7.12084Z" fill="#00A4F4"/>
<path d="M57.3198 7.10179C56.6049 7.09955 55.9981 7.695 55.9959 8.40094C55.9937 9.10689 56.5967 9.70613 57.3116 9.70837C58.0264 9.71061 58.6332 9.11516 58.6354 8.40922C58.6376 7.70327 58.0896 7.10421 57.3198 7.10179Z" fill="#00A4F4"/>
<path d="M51.2704 7.08275C50.5556 7.08051 49.9488 7.67595 49.9466 8.3819C49.9444 9.08785 50.5474 9.68708 51.2623 9.68932C51.9771 9.69157 52.5839 9.09612 52.5861 8.39017C52.5883 7.68423 51.9853 7.08499 51.2704 7.08275Z" fill="#00A4F4"/>
<path d="M45.1662 7.06371C44.4513 7.06147 43.8446 7.65691 43.8423 8.36286C43.8401 9.0688 44.4432 9.66804 45.158 9.67028C45.8729 9.67252 46.4796 9.07708 46.4819 8.37113C46.4841 7.66518 45.936 7.06612 45.1662 7.06371Z" fill="#00A4F4"/>
<path d="M39.1174 7.04466C38.4025 7.04242 37.7957 7.63787 37.7935 8.34381C37.7913 9.04976 38.3943 9.649 39.1092 9.65124C39.8241 9.65348 40.4308 9.05804 40.433 8.35209C40.4352 7.64614 39.8322 7.04691 39.1174 7.04466Z" fill="#00A4F4"/>
<path d="M33.0138 7.02562C32.299 7.02338 31.6922 7.61882 31.69 8.32477C31.6878 9.03072 32.2908 9.62995 33.0057 9.6322C33.7205 9.63444 34.3273 9.03899 34.3295 8.33305C34.3317 7.6271 33.7287 7.02786 33.0138 7.02562Z" fill="#00A4F4"/>
<path d="M26.9096 7.00658C26.1947 7.00434 25.588 7.59978 25.5858 8.30573C25.5835 9.01167 26.1866 9.61091 26.9014 9.61315C27.6163 9.61539 28.2231 9.01995 28.2253 8.314C28.2275 7.60806 27.6795 7.00899 26.9096 7.00658Z" fill="#00A4F4"/>
<path d="M63.4033 13.3655C62.6884 13.3632 62.0816 13.9587 62.0794 14.6646C62.0772 15.3706 62.6802 15.9698 63.3951 15.972C64.1099 15.9743 64.7167 15.3788 64.7189 14.6729C64.7211 13.9669 64.1181 13.3677 63.4033 13.3655Z" fill="#00A4F4"/>
<path d="M57.3002 13.3464C56.5854 13.3442 55.9786 13.9396 55.9764 14.6456C55.9742 15.3515 56.5772 15.9508 57.2921 15.953C58.0069 15.9552 58.6137 15.3598 58.6159 14.6538C58.6181 13.9479 58.0701 13.3488 57.3002 13.3464Z" fill="#00A4F4"/>
<path d="M51.2509 13.3274C50.536 13.3251 49.9293 13.9206 49.9271 14.6265C49.9249 15.3325 50.5279 15.9317 51.2427 15.934C51.9576 15.9362 52.5644 15.3407 52.5666 14.6348C52.5688 13.9289 51.9658 13.3296 51.2509 13.3274Z" fill="#00A4F4"/>
<path d="M45.1464 13.3083C44.4315 13.3061 43.8248 13.9015 43.8226 14.6075C43.8204 15.3134 44.4234 15.9127 45.1382 15.9149C45.8531 15.9172 46.4599 15.3217 46.4621 14.6158C46.4643 13.9098 45.9163 13.3107 45.1464 13.3083Z" fill="#00A4F4"/>
<path d="M40.4135 14.5967C40.4158 13.8769 39.8267 13.2916 39.0978 13.2893C38.3689 13.287 37.7762 13.8686 37.774 14.5884C37.7717 15.3082 38.3608 15.8936 39.0897 15.8959C39.8185 15.8982 40.4112 15.3165 40.4135 14.5967Z" fill="#00A4F4"/>
<path d="M32.9941 13.2703C32.2792 13.268 31.6724 13.8635 31.6702 14.5694C31.668 15.2753 32.271 15.8746 32.9859 15.8768C33.7008 15.8791 34.3075 15.2836 34.3097 14.5777C34.312 13.8717 33.7089 13.2725 32.9941 13.2703Z" fill="#00A4F4"/>
<path d="M26.8901 13.2512C26.1752 13.249 25.5684 13.8444 25.5662 14.5504C25.564 15.2563 26.167 15.8555 26.8819 15.8578C27.5968 15.86 28.2035 15.2646 28.2057 14.5586C28.2629 13.8529 27.6599 13.2536 26.8901 13.2512Z" fill="#00A4F4"/>
<path d="M63.3837 19.5564C62.6689 19.5541 62.0621 20.1496 62.0599 20.8555C62.0577 21.5615 62.6607 22.1607 63.3755 22.163C64.0904 22.1652 64.6972 21.5698 64.6994 20.8638C64.7016 20.1579 64.0986 19.5586 63.3837 19.5564Z" fill="#00A4F4"/>
<path d="M57.2807 19.5373C56.5658 19.5351 55.9591 20.1305 55.9569 20.8365C55.9546 21.5424 56.5577 22.1417 57.2725 22.1439C57.9874 22.1462 58.5941 21.5507 58.5964 20.8448C58.5986 20.1388 58.0505 19.5398 57.2807 19.5373Z" fill="#00A4F4"/>
<path d="M51.2314 19.5183C50.5165 19.5161 49.9097 20.1115 49.9075 20.8174C49.9053 21.5234 50.5083 22.1226 51.2232 22.1249C51.9381 22.1271 52.5448 21.5317 52.547 20.8257C52.5493 20.1198 51.9462 19.5205 51.2314 19.5183Z" fill="#00A4F4"/>
<path d="M45.1271 19.4993C44.4123 19.497 43.8055 20.0925 43.8033 20.7984C43.8011 21.5044 44.4041 22.1036 45.119 22.1058C45.8338 22.1081 46.4406 21.5126 46.4428 20.8067C46.445 20.1007 45.897 19.5017 45.1271 19.4993Z" fill="#00A4F4"/>
<path d="M39.0785 19.4802C38.3637 19.478 37.7569 20.0734 37.7547 20.7794C37.7525 21.4853 38.3555 22.0845 39.0704 22.0868C39.7852 22.089 40.392 21.4936 40.3942 20.7876C40.3964 20.0817 39.7934 19.4825 39.0785 19.4802Z" fill="#00A4F4"/>
<path d="M32.9748 19.4612C32.2599 19.4589 31.6532 20.0544 31.6509 20.7603C31.6487 21.4663 32.2517 22.0655 32.9666 22.0677C33.6815 22.07 34.2882 21.4745 34.2905 20.7686C34.2927 20.0626 33.6897 19.4634 32.9748 19.4612Z" fill="#00A4F4"/>
<path d="M26.8705 19.4421C26.1557 19.4399 25.5489 20.0353 25.5467 20.7413C25.5445 21.4472 26.1475 22.0465 26.8624 22.0487C27.5772 22.0509 28.184 21.4555 28.1862 20.7496C28.1884 20.0436 27.6404 19.4445 26.8705 19.4421Z" fill="#00A4F4"/>
<path d="M63.3642 25.8015C62.6493 25.7993 62.0426 26.3947 62.0403 27.1007C62.0381 27.8066 62.6412 28.4058 63.356 28.4081C64.0709 28.4103 64.6776 27.8149 64.6799 27.1089C64.6821 26.403 64.0791 25.8037 63.3642 25.8015Z" fill="#00A4F4"/>
<path d="M57.2612 25.7825C56.5463 25.7802 55.9395 26.3757 55.9373 27.0816C55.9351 27.7876 56.5381 28.3868 57.253 28.389C57.9679 28.3913 58.5746 27.7958 58.5768 27.0899C58.579 26.3839 58.031 25.7849 57.2612 25.7825Z" fill="#00A4F4"/>
<path d="M51.2118 25.7634C50.497 25.7612 49.8902 26.3566 49.888 27.0626C49.8858 27.7685 50.4888 28.3677 51.2037 28.37C51.9185 28.3722 52.5253 27.7768 52.5275 27.0708C52.5297 26.3649 51.9267 25.7657 51.2118 25.7634Z" fill="#00A4F4"/>
<path d="M45.1076 25.7444C44.3927 25.7421 43.786 26.3376 43.7838 27.0435C43.7815 27.7495 44.3846 28.3487 45.0994 28.3509C45.8143 28.3532 46.4211 27.7577 46.4233 27.0518C46.4255 26.3458 45.8775 25.7468 45.1076 25.7444Z" fill="#00A4F4"/>
<path d="M39.059 25.7253C38.3441 25.7231 37.7374 26.3185 37.7352 27.0245C37.733 27.7304 38.336 28.3297 39.0508 28.3319C39.7657 28.3341 40.3725 27.7387 40.3747 27.0328C40.3769 26.3268 39.7739 25.7276 39.059 25.7253Z" fill="#00A4F4"/>
<path d="M32.9553 25.7063C32.2404 25.704 31.6336 26.2995 31.6314 27.0054C31.6292 27.7114 32.2322 28.3106 32.9471 28.3129C33.6619 28.3151 34.2687 27.7197 34.2709 27.0137C34.2731 26.3078 33.6701 25.7085 32.9553 25.7063Z" fill="#00A4F4"/>
<path d="M26.851 25.6872C26.1361 25.685 25.5294 26.2804 25.5272 26.9864C25.525 27.6923 26.128 28.2916 26.8428 28.2938C27.5577 28.2961 28.1645 27.7006 28.1667 26.9947C28.2239 26.2889 27.6209 25.6897 26.851 25.6872Z" fill="#00A4F4"/>
<path d="M14.4321 5.28441C13.7172 5.28217 13.1104 5.87761 13.1082 6.58355C13.106 7.2895 13.709 7.88874 14.4239 7.89098C15.1388 7.89322 15.7455 7.29778 15.7477 6.59183C15.7499 5.88588 15.1469 5.28665 14.4321 5.28441Z" fill="#0069AB"/>
<path d="M8.32854 5.26488C7.61368 5.26264 7.00692 5.85808 7.0047 6.56402C7.00249 7.26997 7.6055 7.86921 8.32037 7.87145C9.03524 7.87369 9.642 7.27824 9.64421 6.5723C9.64642 5.86635 9.0984 5.26729 8.32854 5.26488Z" fill="#0069AB"/>
<path d="M2.27946 5.24632C1.5646 5.24408 0.957844 5.83952 0.955631 6.54547C0.953418 7.25142 1.55643 7.85065 2.27129 7.85289C2.98616 7.85513 3.59292 7.25969 3.59513 6.55374C3.59735 5.8478 2.99433 5.24857 2.27946 5.24632Z" fill="#0069AB"/>
<path d="M14.4125 11.529C13.6977 11.5268 13.0909 12.1222 13.0887 12.8282C13.0865 13.5341 13.6895 14.1334 14.4044 14.1356C15.1192 14.1379 15.726 13.5424 15.7282 12.8365C15.7304 12.1305 15.1274 11.5313 14.4125 11.529Z" fill="#0069AB"/>
<path d="M8.30901 11.51C7.59414 11.5078 6.98739 12.1032 6.98517 12.8091C6.98296 13.5151 7.58597 14.1143 8.30084 14.1166C9.01571 14.1188 9.62247 13.5234 9.62468 12.8174C9.62689 12.1115 9.07887 11.5124 8.30901 11.51Z" fill="#0069AB"/>
<path d="M2.25993 11.491C1.54507 11.4887 0.938313 12.0842 0.9361 12.7901C0.933887 13.496 1.5369 14.0953 2.25176 14.0975C2.96663 14.0998 3.57339 13.5043 3.5756 12.7984C3.57781 12.0924 2.9748 11.4932 2.25993 11.491Z" fill="#0069AB"/>
<path d="M14.3932 17.72C13.6784 17.7177 13.0716 18.3132 13.0694 19.0191C13.0672 19.7251 13.6702 20.3243 14.3851 20.3265C15.0999 20.3288 15.7067 19.7333 15.7089 19.0274C15.7111 18.3214 15.1081 17.7222 14.3932 17.72Z" fill="#0069AB"/>
<path d="M8.28972 17.7004C7.57486 17.6982 6.9681 18.2936 6.96589 18.9996C6.96367 19.7055 7.56669 20.3048 8.28155 20.307C8.99642 20.3092 9.60318 19.7138 9.60539 19.0078C9.60761 18.3019 9.05958 17.7028 8.28972 17.7004Z" fill="#0069AB"/>
<path d="M2.24065 17.6819C1.52578 17.6796 0.919026 18.2751 0.916813 18.981C0.9146 19.687 1.51761 20.2862 2.23248 20.2884C2.94734 20.2907 3.5541 19.6952 3.55631 18.9893C3.55853 18.2833 2.95551 17.6841 2.24065 17.6819Z" fill="#0069AB"/>
<path d="M14.3735 23.9646C13.6586 23.9623 13.0518 24.5578 13.0496 25.2637C13.0474 25.9697 13.6504 26.5689 14.3653 26.5712C15.0802 26.5734 15.6869 25.978 15.6891 25.272C15.6913 24.5661 15.0883 23.9668 14.3735 23.9646Z" fill="#0069AB"/>
<path d="M8.26995 23.9455C7.55508 23.9433 6.94832 24.5387 6.94611 25.2447C6.9439 25.9506 7.54691 26.5499 8.26178 26.5521C8.97664 26.5544 9.5834 25.9589 9.58562 25.253C9.58783 24.547 9.0398 23.948 8.26995 23.9455Z" fill="#0069AB"/>
<path d="M2.22112 23.9265C1.50625 23.9243 0.899495 24.5197 0.897282 25.2257C0.895069 25.9316 1.49808 26.5308 2.21294 26.5331C2.92781 26.5353 3.53457 25.9399 3.53678 25.2339C3.539 24.528 2.93598 23.9287 2.22112 23.9265Z" fill="#0069AB"/>
<path d="M14.3542 30.155C13.6393 30.1528 13.0326 30.7482 13.0303 31.4542C13.0281 32.1601 13.6311 32.7593 14.346 32.7616C15.0609 32.7638 15.6676 32.1684 15.6698 31.4624C15.6721 30.7565 15.069 30.1573 14.3542 30.155Z" fill="#0069AB"/>
<path d="M8.25066 30.136C7.5358 30.1337 6.92904 30.7292 6.92682 31.4351C6.92461 32.1411 7.52762 32.7403 8.24249 32.7425C8.95736 32.7448 9.56412 32.1493 9.56633 31.4434C9.56854 30.7374 9.02052 30.1384 8.25066 30.136Z" fill="#0069AB"/>
<path d="M2.20158 30.1169C1.48672 30.1147 0.879963 30.7101 0.87775 31.4161C0.875537 32.122 1.47855 32.7213 2.19341 32.7235C2.90828 32.7257 3.51504 32.1303 3.51725 31.4244C3.51947 30.7184 2.91645 30.1192 2.20158 30.1169Z" fill="#0069AB"/>
<path d="M56.9861 8.078C57.701 8.08024 58.3078 7.4848 58.31 6.77885C58.3122 6.0729 57.7092 5.47366 56.9943 5.47142C56.2794 5.46918 55.6727 6.06463 55.6705 6.77058C55.6683 7.47652 56.2163 8.07559 56.9861 8.078Z" fill="#0069AB"/>
<path d="M52.2065 6.70609C52.2087 5.9863 51.6197 5.40095 50.8908 5.39867C50.1619 5.39638 49.5692 5.97803 49.567 6.69781C49.5647 7.41761 50.1537 8.00295 50.8826 8.00524C51.6115 8.00752 52.2042 7.42588 52.2065 6.70609Z" fill="#0069AB"/>
<path d="M44.8417 5.37963C44.1269 5.37738 43.5201 5.97282 43.5179 6.67877C43.5157 7.38472 44.1187 7.98395 44.8336 7.98619C45.5484 7.98843 46.1552 7.39299 46.1574 6.68704C46.1596 5.9811 45.5566 5.38187 44.8417 5.37963Z" fill="#0069AB"/>
<path d="M40.0531 6.668C40.0554 5.94822 39.4664 5.36287 38.7375 5.36058C38.0086 5.3583 37.4159 5.93994 37.4136 6.65973C37.4114 7.37952 38.0004 7.96486 38.7293 7.96715C39.4582 7.96943 40.0509 7.3878 40.0531 6.668Z" fill="#0069AB"/>
<path d="M33.9499 6.64847C33.9521 5.92869 33.3631 5.34334 32.6342 5.34105C31.9053 5.33877 31.3126 5.92041 31.3104 6.6402C31.3081 7.35999 31.8971 7.94533 32.626 7.94762C33.3549 7.9499 33.9476 7.36826 33.9499 6.64847Z" fill="#0069AB"/>
<path d="M26.5849 5.3225C25.87 5.32026 25.2633 5.91569 25.2611 6.62164C25.2588 7.32759 25.8619 7.92682 26.5767 7.92906C27.2916 7.9313 27.8983 7.33586 27.9006 6.62991C27.9028 5.92397 27.2998 5.32474 26.5849 5.3225Z" fill="#0069AB"/>
<path d="M21.7966 6.61038C21.7988 5.8906 21.2098 5.30525 20.4809 5.30297C19.752 5.30068 19.1593 5.88233 19.157 6.60211C19.1548 7.3219 19.7438 7.90725 20.4727 7.90953C21.2016 7.91182 21.7943 7.33018 21.7966 6.61038Z" fill="#0069AB"/>
<path d="M56.9748 11.6623C56.2599 11.6601 55.6532 12.2555 55.6509 12.9615C55.6487 13.6674 56.2517 14.2667 56.9666 14.2689C57.6815 14.2712 58.2882 13.6757 58.2905 12.9698C58.2927 12.2638 57.6897 11.6646 56.9748 11.6623Z" fill="#0069AB"/>
<path d="M52.1869 12.9507C52.1892 12.2309 51.6002 11.6456 50.8713 11.6433C50.1424 11.641 49.5497 12.2227 49.5474 12.9424C49.5452 13.6622 50.1342 14.2476 50.8631 14.2499C51.592 14.2522 52.1847 13.6705 52.1869 12.9507Z" fill="#0069AB"/>
<path d="M44.8222 11.6243C44.1073 11.622 43.5006 12.2175 43.4984 12.9234C43.4961 13.6294 44.0992 14.2286 44.814 14.2308C45.5289 14.2331 46.1357 13.6376 46.1379 12.9317C46.1401 12.2257 45.5371 11.6265 44.8222 11.6243Z" fill="#0069AB"/>
<path d="M40.0336 12.9126C40.0359 12.1928 39.4468 11.6075 38.7179 11.6052C37.9891 11.6029 37.3964 12.1846 37.3941 12.9044C37.3919 13.6242 37.9809 14.2095 38.7098 14.2118C39.4387 14.2141 40.0314 13.6324 40.0336 12.9126Z" fill="#0069AB"/>
<path d="M33.9303 12.8936C33.9326 12.1738 33.3436 11.5885 32.6147 11.5862C31.8858 11.5839 31.2931 12.1655 31.2908 12.8853C31.2886 13.6051 31.8776 14.1905 32.6065 14.1927C33.3354 14.195 33.9281 13.6134 33.9303 12.8936Z" fill="#0069AB"/>
<path d="M26.5654 11.5671C25.8505 11.5649 25.2437 12.1603 25.2415 12.8663C25.2393 13.5722 25.8423 14.1715 26.5572 14.1737C27.2721 14.1759 27.8788 13.5805 27.881 12.8745C27.8832 12.1686 27.2802 11.5694 26.5654 11.5671Z" fill="#0069AB"/>
<path d="M21.777 12.8555C21.7793 12.1357 21.1902 11.5504 20.4614 11.5481C19.7325 11.5458 19.1398 12.1274 19.1375 12.8472C19.1353 13.567 19.7243 14.1524 20.4532 14.1547C21.1821 14.1569 21.7748 13.5753 21.777 12.8555Z" fill="#0069AB"/>
<path d="M56.9555 17.8533C56.2406 17.851 55.6339 18.4465 55.6317 19.1524C55.6294 19.8584 56.2325 20.4576 56.9473 20.4598C57.6622 20.4621 58.269 19.8666 58.2712 19.1607C58.2734 18.4547 57.6704 17.8555 56.9555 17.8533Z" fill="#0069AB"/>
<path d="M50.852 17.8342C50.1371 17.832 49.5304 18.4274 49.5281 19.1334C49.5259 19.8393 50.1289 20.4385 50.8438 20.4408C51.5587 20.443 52.1654 19.8476 52.1676 19.1416C52.1699 18.4357 51.6218 17.8366 50.852 17.8342Z" fill="#0069AB"/>
<path d="M44.8029 17.8152C44.088 17.8129 43.4813 18.4084 43.4791 19.1143C43.4769 19.8203 44.0799 20.4195 44.7947 20.4217C45.5096 20.424 46.1164 19.8285 46.1186 19.1226C46.1208 18.4166 45.5178 17.8174 44.8029 17.8152Z" fill="#0069AB"/>
<path d="M38.6984 17.7961C37.9836 17.7939 37.3768 18.3893 37.3746 19.0953C37.3724 19.8012 37.9754 20.4005 38.6902 20.4027C39.4051 20.4049 40.0119 19.8095 40.0141 19.1036C40.0163 18.3976 39.4133 17.7984 38.6984 17.7961Z" fill="#0069AB"/>
<path d="M32.5951 17.7771C31.8803 17.7748 31.2735 18.3703 31.2713 19.0762C31.2691 19.7822 31.8721 20.3814 32.587 20.3837C33.3018 20.3859 33.9086 19.7905 33.9108 19.0845C33.968 18.3787 33.365 17.7795 32.5951 17.7771Z" fill="#0069AB"/>
<path d="M26.5458 17.758C25.831 17.7558 25.2242 18.3512 25.222 19.0572C25.2198 19.7631 25.8228 20.3624 26.5377 20.3646C27.2525 20.3669 27.8593 19.7714 27.8615 19.0655C27.8637 18.3595 27.2607 17.7603 26.5458 17.758Z" fill="#0069AB"/>
<path d="M20.4421 17.7385C19.7272 17.7363 19.1204 18.3317 19.1182 19.0377C19.116 19.7436 19.719 20.3428 20.4339 20.3451C21.1488 20.3473 21.7555 19.7519 21.7577 19.0459C21.8149 18.3402 21.2119 17.7409 20.4421 17.7385Z" fill="#0069AB"/>
<path d="M56.9357 24.0979C56.2209 24.0956 55.6141 24.6911 55.6119 25.397C55.6097 26.103 56.2127 26.7022 56.9276 26.7045C57.6424 26.7067 58.2492 26.1113 58.2514 25.4053C58.2536 24.6994 57.6506 24.1001 56.9357 24.0979Z" fill="#0069AB"/>
<path d="M50.8322 24.0788C50.1173 24.0766 49.5106 24.672 49.5084 25.378C49.5062 26.0839 50.1092 26.6832 50.824 26.6854C51.5389 26.6877 52.1457 26.0922 52.1479 25.3863C52.1501 24.6803 51.6021 24.0813 50.8322 24.0788Z" fill="#0069AB"/>
<path d="M44.7834 24.0598C44.0685 24.0576 43.4618 24.653 43.4595 25.359C43.4573 26.0649 44.0603 26.6641 44.7752 26.6664C45.4901 26.6686 46.0968 26.0732 46.099 25.3672C46.1013 24.6613 45.4982 24.062 44.7834 24.0598Z" fill="#0069AB"/>
<path d="M38.6789 24.0408C37.964 24.0385 37.3573 24.634 37.355 25.3399C37.3528 26.0459 37.9558 26.6451 38.6707 26.6473C39.3856 26.6496 39.9923 26.0541 39.9946 25.3482C39.9968 24.6422 39.3938 24.043 38.6789 24.0408Z" fill="#0069AB"/>
<path d="M32.5756 24.0217C31.8607 24.0195 31.254 24.6149 31.2518 25.3209C31.2496 26.0268 31.8526 26.626 32.5674 26.6283C33.2823 26.6305 33.8891 26.0351 33.8913 25.3291C33.9485 24.6234 33.3455 24.0241 32.5756 24.0217Z" fill="#0069AB"/>
<path d="M26.5263 24.0027C25.8114 24.0004 25.2047 24.5959 25.2025 25.3018C25.2002 26.0078 25.8033 26.607 26.5181 26.6092C27.233 26.6115 27.8398 26.016 27.842 25.3101C27.8442 24.6042 27.2412 24.0049 26.5263 24.0027Z" fill="#0069AB"/>
<path d="M20.4225 23.9836C19.7077 23.9814 19.1009 24.5768 19.0987 25.2828C19.0965 25.9887 19.6995 26.588 20.4144 26.5902C21.1292 26.5924 21.736 25.997 21.7382 25.2911C21.7954 24.5853 21.1924 23.986 20.4225 23.9836Z" fill="#0069AB"/>
<path d="M56.9164 30.2883C56.2016 30.2861 55.5948 30.8815 55.5926 31.5875C55.5904 32.2934 56.1934 32.8926 56.9083 32.8949C57.6231 32.8971 58.2299 32.3017 58.2321 31.5957C58.2343 30.8898 57.6313 30.2906 56.9164 30.2883Z" fill="#0069AB"/>
<path d="M50.8129 30.2693C50.0981 30.267 49.4913 30.8625 49.4891 31.5684C49.4869 32.2744 50.0899 32.8736 50.8047 32.8758C51.5196 32.8781 52.1264 32.2826 52.1286 31.5767C52.1308 30.8707 51.5828 30.2717 50.8129 30.2693Z" fill="#0069AB"/>
<path d="M44.7638 30.2502C44.049 30.248 43.4422 30.8434 43.44 31.5494C43.4378 32.2553 44.0408 32.8546 44.7557 32.8568C45.4705 32.859 46.0773 32.2636 46.0795 31.5577C46.0817 30.8517 45.4787 30.2525 44.7638 30.2502Z" fill="#0069AB"/>
<path d="M38.6596 30.2312C37.9447 30.2289 37.338 30.8244 37.3358 31.5303C37.3335 32.2363 37.9366 32.8355 38.6514 32.8378C39.3663 32.84 39.9731 32.2446 39.9753 31.5386C39.9775 30.8327 39.3745 30.2334 38.6596 30.2312Z" fill="#0069AB"/>
<path d="M32.5561 30.2121C31.8412 30.2099 31.2345 30.8053 31.2322 31.5113C31.23 32.2172 31.833 32.8165 32.5479 32.8187C33.2628 32.821 33.8695 32.2255 33.8717 31.5196C33.874 30.8136 33.3259 30.2146 32.5561 30.2121Z" fill="#0069AB"/>
<path d="M26.507 30.1931C25.7921 30.1909 25.1854 30.7863 25.1832 31.4923C25.181 32.1982 25.784 32.7974 26.4988 32.7997C27.2137 32.8019 27.8205 32.2065 27.8227 31.5005C27.8249 30.7946 27.2219 30.1953 26.507 30.1931Z" fill="#0069AB"/>
<path d="M20.403 30.1741C19.6881 30.1718 19.0814 30.7673 19.0792 31.4732C19.077 32.1792 19.68 32.7784 20.3948 32.7806C21.1097 32.7829 21.7165 32.1874 21.7187 31.4815C21.7209 30.7755 21.1729 30.1765 20.403 30.1741Z" fill="#0069AB"/>
</g>
</svg>
