<svg width="25" height="25" viewBox="0 0 25 25" fill="none" xmlns="http://www.w3.org/2000/svg">
<g opacity="0.7">
<path d="M6.27543 6.11329C6.91739 6.61852 7.16126 6.58375 8.37642 6.50961L19.8321 5.8864C20.0758 5.88716 19.8737 5.65269 19.792 5.61315L17.8934 4.28833C17.5322 4.01407 17.0457 3.7045 16.1139 3.77578L5.0239 4.52049C4.61752 4.55476 4.53566 4.74968 4.69768 4.90608L6.27543 6.11329ZM6.95448 8.67831L6.91825 20.2368C6.91631 20.8573 7.23734 21.0921 7.9655 21.0551L20.5556 20.3962C21.2837 20.3592 21.3696 19.9342 21.3711 19.4278L21.4071 7.94727C21.4087 7.44031 21.2061 7.17028 20.7594 7.20817L7.60435 7.904C7.1167 7.94176 6.95672 8.17135 6.95514 8.6752L6.95448 8.67831ZM19.3779 9.33398C19.4581 9.6853 19.3757 10.0324 19.0096 10.0736L18.4034 10.189L18.3767 18.7207C17.8474 18.9921 17.3632 19.1465 16.9602 19.1452C16.3102 19.1432 16.1483 18.9475 15.6658 18.3648L11.7168 12.3767L11.6987 18.1578L12.9537 18.4349C12.9537 18.4349 12.9515 19.1333 11.9394 19.1301L9.14569 19.2773C9.06493 19.1211 9.1474 18.7316 9.43235 18.6577L10.161 18.4648L10.185 10.8229L9.1731 10.7418C9.09295 10.3905 9.29798 9.88792 9.86298 9.85103L12.8596 9.66524L16.9709 15.7318L16.9877 10.376L15.935 10.2554C15.8551 9.8299 16.1778 9.51912 16.5842 9.48423L19.3779 9.33398ZM4.09634 3.46935L15.6337 2.6905C17.0492 2.57771 17.4149 2.6568 18.3029 3.28004L21.9788 5.7759C22.5833 6.20307 22.7864 6.32094 22.785 6.7855L22.7423 20.4037C22.7396 21.2579 22.413 21.7601 21.2817 21.8345L7.87885 22.5689C7.03238 22.6055 6.62648 22.487 6.18096 21.9431L3.47961 18.5567C2.99728 17.9347 2.79593 17.4696 2.79763 16.9277L2.83557 4.82355C2.83776 4.12515 3.1646 3.545 4.09569 3.46997L4.09634 3.46935Z" fill="black"/>
</g>
</svg>
