<svg width="25" height="25" viewBox="0 0 25 25" fill="none" xmlns="http://www.w3.org/2000/svg">
<g opacity="0.7">
<path d="M6.50439 15.4544C6.50264 16.0115 6.27966 16.5451 5.88449 16.9378C5.48932 17.3305 4.95434 17.5502 4.39724 17.5484C3.84014 17.5467 3.30654 17.3237 2.91385 16.9285C2.52115 16.5333 2.30152 15.9984 2.30326 15.4413C2.30501 14.8842 2.52799 14.3506 2.92316 13.9579C3.31833 13.5652 3.85331 13.3455 4.41041 13.3473L6.51097 13.3539L6.50439 15.4544ZM7.55467 15.4577C7.55642 14.9006 7.7794 14.367 8.17457 13.9743C8.56973 13.5816 9.10471 13.362 9.66182 13.3637C10.2189 13.3655 10.7525 13.5885 11.1452 13.9836C11.5379 14.3788 11.7575 14.9138 11.7558 15.4709L11.7393 20.7223C11.7376 21.2794 11.5146 21.813 11.1194 22.2057C10.7243 22.5984 10.1893 22.818 9.63218 22.8163C9.07508 22.8145 8.54149 22.5915 8.14879 22.1964C7.75609 21.8012 7.53646 21.2662 7.53821 20.7091L7.55467 15.4577ZM9.68157 7.06206C9.12447 7.06032 8.59088 6.83733 8.19818 6.44217C7.80548 6.047 7.58585 5.51202 7.58759 4.95492C7.58934 4.39781 7.81232 3.86422 8.20749 3.47152C8.60266 3.07883 9.13764 2.85919 9.69474 2.86094C10.2518 2.86268 10.7854 3.08567 11.1781 3.48083C11.5708 3.876 11.7905 4.41098 11.7887 4.96808L11.7821 7.06865L9.68157 7.06206ZM9.67828 8.11234C10.2354 8.11409 10.769 8.33707 11.1617 8.73224C11.5544 9.12741 11.774 9.66239 11.7723 10.2195C11.7705 10.7766 11.5475 11.3102 11.1524 11.7029C10.7572 12.0956 10.2222 12.3152 9.66511 12.3135L4.4137 12.297C3.8566 12.2953 3.32301 12.0723 2.93031 11.6771C2.53761 11.2819 2.31798 10.747 2.31973 10.1899C2.32147 9.63275 2.54446 9.09916 2.93962 8.70647C3.33479 8.31377 3.86977 8.09413 4.42687 8.09588L9.67828 8.11234ZM18.0739 10.2392C18.0757 9.68214 18.2987 9.14855 18.6938 8.75585C19.089 8.36316 19.624 8.14352 20.1811 8.14527C20.7382 8.14701 21.2718 8.37 21.6645 8.76517C22.0572 9.16033 22.2768 9.69531 22.2751 10.2524C22.2733 10.8095 22.0503 11.3431 21.6552 11.7358C21.26 12.1285 20.725 12.3481 20.1679 12.3464L18.0674 12.3398L18.0739 10.2392ZM17.0237 10.236C17.0219 10.7931 16.7989 11.3266 16.4038 11.7193C16.0086 12.112 15.4736 12.3317 14.9165 12.3299C14.3594 12.3282 13.8258 12.1052 13.4331 11.71C13.0404 11.3149 12.8208 10.7799 12.8225 10.2228L12.839 4.97138C12.8407 4.41427 13.0637 3.88068 13.4589 3.48798C13.8541 3.09529 14.389 2.87565 14.9461 2.8774C15.5033 2.87915 16.0368 3.10213 16.4295 3.4973C16.8222 3.89246 17.0419 4.42744 17.0401 4.98455L17.0237 10.236ZM14.8968 18.6316C15.4539 18.6334 15.9875 18.8563 16.3802 19.2515C16.7728 19.6467 16.9925 20.1817 16.9907 20.7388C16.989 21.2959 16.766 21.8295 16.3708 22.2222C15.9757 22.6149 15.4407 22.8345 14.8836 22.8327C14.3265 22.831 13.7929 22.608 13.4002 22.2128C13.0075 21.8177 12.7879 21.2827 12.7896 20.7256L12.7962 18.625L14.8968 18.6316ZM14.9001 17.5813C14.3429 17.5796 13.8094 17.3566 13.4167 16.9614C13.024 16.5663 12.8043 16.0313 12.8061 15.4742C12.8078 14.9171 13.0308 14.3835 13.426 13.9908C13.8211 13.5981 14.3561 13.3785 14.9132 13.3802L20.1646 13.3967C20.7217 13.3984 21.2553 13.6214 21.648 14.0166C22.0407 14.4117 22.2604 14.9467 22.2586 15.5038C22.2569 16.0609 22.0339 16.5945 21.6387 16.9872C21.2435 17.3799 20.7086 17.5995 20.1515 17.5978L14.9001 17.5813Z" fill="black"/>
</g>
</svg>
