<svg width="25" height="25" viewBox="0 0 25 25" fill="none" xmlns="http://www.w3.org/2000/svg">
<g opacity="0.7">
<path d="M17.9297 11.6506C14.7428 9.7448 9.40534 9.52851 6.35918 10.4668C5.85982 10.6149 5.36188 10.3141 5.21362 9.86459C5.06552 9.36524 5.36641 8.86729 5.81588 8.71904C9.36123 7.68248 15.1975 7.90034 18.8824 10.107C19.3306 10.3578 19.4784 10.957 19.2276 11.4052C18.977 11.7536 18.3779 11.9014 17.9297 11.6506ZM17.8211 14.444C17.5706 14.7924 17.1211 14.9407 16.7727 14.6902C14.0839 13.0354 9.99461 12.5237 6.84852 13.5116C6.4491 13.6101 6.00073 13.4092 5.9022 13.0097C5.80368 12.6103 6.00464 12.162 6.40406 12.0634C10.0493 10.9773 14.5376 11.5402 17.6247 13.4456C17.9236 13.5962 18.0717 14.0956 17.8211 14.444ZM16.6152 17.1841C16.4147 17.4828 16.0652 17.5815 15.7665 17.381C13.4263 15.9269 10.4838 15.6183 6.98911 16.4056C6.63958 16.5043 6.34103 16.2539 6.2422 15.9543C6.14351 15.6047 6.39389 15.3062 6.69354 15.2073C10.4877 14.3711 13.7792 14.7307 16.3684 16.3352C16.7172 16.486 16.7658 16.8852 16.6152 17.1841ZM12.0707 2.75198C10.7604 2.74787 9.46214 3.00189 8.25002 3.49952C7.0379 3.99715 5.93567 4.72865 5.00625 5.65226C3.12921 7.51757 2.07003 10.0521 2.06174 12.6984C2.05344 15.3446 3.0967 17.8858 4.96201 19.7628C5.88562 20.6922 6.98325 21.4306 8.19222 21.9358C9.4012 22.4411 10.6978 22.7032 12.0081 22.7073C14.6544 22.7156 17.1955 21.6724 19.0726 19.807C20.9496 17.9417 22.0088 15.4072 22.0171 12.7609C22.0212 11.4506 21.7672 10.1524 21.2695 8.94026C20.7719 7.72814 20.0404 6.62591 19.1168 5.69649C18.1932 4.76707 17.0956 4.02868 15.8866 3.52346C14.6776 3.01824 13.381 2.75609 12.0707 2.75198Z" fill="black"/>
</g>
</svg>
